# xmcd
#
# Track frame offsets: 
#        150
#        16990
#        32091
#        47238
#        66113
#        81897
#        97215
#        121359
#        143327
#        156685
#        174395
#        189209
#        210599
#        230088
#        241806
#        258910
#        273604
#        292358
#
# Disc length: 4118 seconds
#
# Revision: 0
# Processed by: cddbd v1.5.2PL0 Copyright (c) Steve Scherf et al.
# Submitted via: ExactAudioCopy v0.95a5
#
DISCID=0a101412
DTITLE=Various Artist - Sexy Bar
DYEAR=1900
DGENRE=Dance
TTITLE0=Party On The Phone
TTITLE1=Tom's Diner
TTITLE2=Slow Wind
TTITLE3=Baby Baby
TTITLE4=This Time
TTITLE5=What The Man's Lies
TTITLE6=Beautiful U R
TTITLE7=Cafe Americaine
TTITLE8=Get Funky
TTITLE9=T Right Now
TTITLE10=Mr Cool
TTITLE11=Sexy Man
TTITLE12=Nightclub Girls
TTITLE13=Love
TTITLE14=Oh La La
TTITLE15=Turn It Up
TTITLE16=Mary
TTITLE17=Love Sex Magic
EXTD=
EXTT0=
EXTT1=
EXTT2=
EXTT3=
EXTT4=
EXTT5=
EXTT6=
EXTT7=
EXTT8=
EXTT9=
EXTT10=
EXTT11=
EXTT12=
EXTT13=
EXTT14=
EXTT15=
EXTT16=
EXTT17=
PLAYORDER=
